<svg width="159" height="160" viewBox="0 0 159 160" fill="none" xmlns="http://www.w3.org/2000/svg">
<path d="M106.863 138.672C106.863 138.672 120.956 137.416 121.629 129.139C122.283 120.861 102.723 77.2379 79.6031 57.9546C56.483 38.6538 33.631 20.6472 26.6433 32.4726C20.3038 43.1877 32.7895 91.2944 53.6315 109.548C74.4731 127.767 96.8464 137.594 106.863 138.672Z" fill="url(#paint0_radial_1_123)"/>
<path d="M123.032 120.644C123.032 120.644 134.692 117.396 136.974 109.067C139.238 100.757 142.462 58.0378 122.63 34.272C102.797 10.5062 72.8677 -7.27503 69.7071 4.95186C66.5465 17.1788 68.5366 59.9358 86.2515 82.2323C103.948 104.511 113.017 117.778 123.032 120.644Z" fill="url(#paint1_radial_1_123)"/>
<path d="M119.638 141.18C119.638 141.18 131.031 136.76 131.752 127.851C132.456 118.942 127.426 73.9188 102.313 50.7643C77.1991 27.5922 42.8225 11.5883 41.9566 24.6694C41.0907 37.7506 51.5131 82.3547 74.1445 104.166C96.8121 125.942 108.752 139.041 119.638 141.18Z" fill="url(#paint2_radial_1_123)"/>
<path d="M140.744 142.625C140.744 142.625 128.838 154.708 119.099 154.029C109.361 153.351 64.1583 129.916 38.2269 107.33C11.0415 83.6693 2.41383 47.1266 16.6756 48.3046C30.9371 49.4651 83.7271 62.6119 102.02 88.0572C120.313 113.52 140.935 131.671 140.744 142.625Z" fill="url(#paint3_radial_1_123)"/>
<path opacity="0.2" d="M24.5037 55.9584C34.4986 58.6317 44.1002 62.2725 53.4862 66.3536C62.8545 70.4873 71.9899 75.149 80.7652 80.4275C89.5403 85.6885 97.9553 91.5662 105.719 98.2037C113.428 104.859 120.613 112.273 125.961 120.809C118.108 114.33 110.15 108.413 101.865 102.832C93.6176 97.2329 85.1535 91.9689 76.5804 86.7937C68.0075 81.6359 59.3261 76.6194 50.5896 71.5683C41.9076 66.4817 33.1166 61.4838 24.5037 55.9584Z" fill="#FFA8C0"/>
<path d="M145.671 139.249C148.522 133.036 146.367 121.666 145.957 112.978C145.546 104.29 130.64 75.1671 108.364 48.3229C69.6959 1.71062 58.7184 9.42092 58.1094 24.5499C57.3674 43.0799 58.9799 74.7653 82.8754 106.588C104.104 134.88 132.923 166.971 145.671 139.249Z" fill="url(#paint4_radial_1_123)"/>
<path d="M7.44034 68.283C1.42716 68.8662 -1.24249 74.8849 2.22565 79.9512C14.4656 97.7788 42.4717 134.907 73.9277 151.588C98.3792 164.567 139.78 158.932 143.715 141.51C145.526 133.59 88.3345 60.3953 7.44034 68.283Z" fill="url(#paint5_radial_1_123)"/>
<path opacity="0.2" d="M20.4338 84.5964C28.2947 91.8638 35.9897 99.0102 44.1005 105.609C52.1749 112.244 60.5924 118.384 69.4419 123.785C78.3098 129.185 87.628 133.828 97.448 137.361C107.268 140.93 117.608 143.267 128.466 144.39C117.71 146.42 106.361 145.617 95.5981 143.004C84.8166 140.338 74.5667 135.827 65.2204 130.134C55.8557 124.423 47.3764 117.529 39.8412 109.873C32.3606 102.182 25.6964 93.7637 20.4338 84.5964Z" fill="#FFA8C0"/>
<path opacity="0.2" d="M31.4993 82.2999C41.0123 86.257 49.9674 91.2008 58.7949 96.1984C67.5862 101.231 76.214 106.389 84.9662 111.159C93.7185 115.93 102.613 120.296 111.921 123.852C121.212 127.478 130.896 130.189 140.98 132.599C130.614 133.329 120.084 132.098 109.961 129.443C99.8198 126.771 90.1223 122.641 81.0938 117.68C72.0288 112.72 63.5425 107.035 55.3645 101.068C47.1861 95.0651 39.2441 88.9025 31.4993 82.2999Z" fill="#FFA8C0"/>
<path d="M89.8455 8.56157C91.7905 3.30331 100.69 0.30929 104.845 4.54544C119.491 19.4586 146.214 56.2665 155.383 88.1251C162.511 112.888 154.605 145.979 136.674 145.625C128.532 145.457 63.7949 79.1692 89.8455 8.56157Z" fill="url(#paint6_radial_1_123)"/>
<path opacity="0.2" d="M111.362 18.731C117.262 27.5943 122.851 36.4431 128.205 45.5569C133.485 54.6715 138.403 64.1576 142.028 74.2518C145.671 84.3108 147.874 94.9969 148.12 105.667C148.347 116.354 146.745 126.971 143.344 136.958C143.502 126.442 143.388 116.174 141.977 106.111C140.639 96.0474 138.06 86.2761 134.623 76.6883C131.204 67.1003 126.928 57.6958 122.704 48.133C118.481 38.5877 114.274 28.8846 111.362 18.731Z" fill="#FFA8C0"/>
<path opacity="0.2" d="M90.2332 36.4392C96.5562 43.5811 102.623 50.7606 108.51 58.1871C114.342 65.6316 119.866 73.4471 124.354 81.9384C128.842 90.4122 132.147 99.5807 133.698 109.011C135.25 118.424 135.174 127.993 133.413 137.228C132.228 127.916 130.827 118.852 128.312 110.114C125.853 101.376 122.354 93.0327 118.108 84.9596C113.861 76.8866 108.904 69.0657 103.964 61.1045C99.0235 53.1432 94.082 45.0593 90.2332 36.4392Z" fill="#FFA8C0"/>
<defs>
<radialGradient id="paint0_radial_1_123" cx="0" cy="0" r="1" gradientUnits="userSpaceOnUse" gradientTransform="translate(19.2543 9.80224) rotate(-45.5923) scale(46.3729 79.8861)">
<stop stop-color="#FFDDE7"/>
<stop offset="0.1298" stop-color="#FDD7E2"/>
<stop offset="0.3053" stop-color="#F6C6D4"/>
<stop offset="0.5071" stop-color="#EBA9BD"/>
<stop offset="0.7284" stop-color="#DB829C"/>
<stop offset="0.9631" stop-color="#C75073"/>
<stop offset="1" stop-color="#C4476C"/>
</radialGradient>
<radialGradient id="paint1_radial_1_123" cx="0" cy="0" r="1" gradientUnits="userSpaceOnUse" gradientTransform="translate(69.4553 -4.00345) rotate(-35.3781) scale(47.1001 80.0053)">
<stop stop-color="#FFDDE7"/>
<stop offset="0.3328" stop-color="#E7A0B5"/>
<stop offset="0.6377" stop-color="#D4708E"/>
<stop offset="0.8691" stop-color="#C85275"/>
<stop offset="1" stop-color="#C4476C"/>
</radialGradient>
<radialGradient id="paint2_radial_1_123" cx="0" cy="0" r="1" gradientUnits="userSpaceOnUse" gradientTransform="translate(22.1512 17.6497) rotate(-42.9413) scale(36.6915 69.1838)">
<stop stop-color="#FFDDE7"/>
<stop offset="0.2179" stop-color="#EDB0C2"/>
<stop offset="0.4667" stop-color="#DB839D"/>
<stop offset="0.6891" stop-color="#CF6282"/>
<stop offset="0.8744" stop-color="#C74E72"/>
<stop offset="1" stop-color="#C4476C"/>
</radialGradient>
<radialGradient id="paint3_radial_1_123" cx="0" cy="0" r="1" gradientUnits="userSpaceOnUse" gradientTransform="translate(19.2984 26.8436) rotate(-45.4972) scale(59.6561 91.2546)">
<stop stop-color="#FFDDE7"/>
<stop offset="0.1884" stop-color="#F2BCCC"/>
<stop offset="0.5725" stop-color="#D97D98"/>
<stop offset="0.8537" stop-color="#CA5678"/>
<stop offset="1" stop-color="#C4476C"/>
</radialGradient>
<radialGradient id="paint4_radial_1_123" cx="0" cy="0" r="1" gradientUnits="userSpaceOnUse" gradientTransform="translate(30.6669 26.0539) rotate(-47.3387) scale(50.8828 106.273)">
<stop stop-color="#FFDDE7"/>
<stop offset="0.2122" stop-color="#F4C2D1"/>
<stop offset="0.6653" stop-color="#D97D99"/>
<stop offset="1" stop-color="#C4476C"/>
</radialGradient>
<radialGradient id="paint5_radial_1_123" cx="0" cy="0" r="1" gradientUnits="userSpaceOnUse" gradientTransform="translate(47.5561 89.8235) rotate(-47.6457) scale(54.0064 118.007)">
<stop stop-color="#FFDDE7"/>
<stop offset="0.1469" stop-color="#F9CEDB"/>
<stop offset="0.4298" stop-color="#EAA7BA"/>
<stop offset="0.8166" stop-color="#D16787"/>
<stop offset="1" stop-color="#C4476C"/>
</radialGradient>
<radialGradient id="paint6_radial_1_123" cx="0" cy="0" r="1" gradientUnits="userSpaceOnUse" gradientTransform="translate(87.8319 31.6287) rotate(-23.1545) scale(70.3693 122.317)">
<stop stop-color="#FFDDE7"/>
<stop offset="0.1327" stop-color="#FDD7E2"/>
<stop offset="0.3052" stop-color="#F6C7D5"/>
<stop offset="0.4997" stop-color="#ECACBF"/>
<stop offset="0.7103" stop-color="#DD87A0"/>
<stop offset="0.9316" stop-color="#CA5779"/>
<stop offset="1" stop-color="#C4476C"/>
</radialGradient>
</defs>
</svg>
