<svg width="167" height="187" viewBox="0 0 167 187" fill="none" xmlns="http://www.w3.org/2000/svg">
<path d="M48.4592 145.534C48.4592 145.534 62.8602 155.837 72.2169 150.324C81.5725 144.83 109.512 97.5389 108.459 65.1235C107.405 32.7081 105.21 1.43822 86.2327 4.47294C69.0416 7.23325 29.7729 52.1686 29.8371 82.0016C29.9243 111.836 40.2784 136.77 48.4592 145.534Z" fill="url(#paint0_radial_1_114)"/>
<path d="M49.309 156.34C49.309 156.34 63.4056 163.727 74.4931 158.968C85.5587 154.188 120.197 127.063 137.042 92.8587C159.23 47.7513 142.524 9.94746 126.409 17.1044C110.294 24.2614 65.7162 60.5074 57.6187 93.7188C49.5212 126.93 43.3595 145.418 49.309 156.34Z" fill="url(#paint1_linear_1_114)"/>
<path d="M65.4488 175.006C74.6545 172.754 90.5412 166.421 99.3365 159.788C108.133 153.136 123.601 117.146 124.17 79.33C125.132 14.7408 89.108 12.2348 79.6214 27.0812C53.8746 67.3287 37.1439 58.0105 25.6939 100.169C15.5077 137.608 24.3387 185.052 65.4488 175.006Z" fill="url(#paint2_radial_1_114)"/>
<path opacity="0.2" d="M67.7628 169.155C70.0166 157.523 73.8666 146.151 77.801 134.919C81.8043 123.691 86.0746 112.633 89.7255 101.542C93.3984 90.4718 96.4291 79.3671 98.1805 68.0969C100.024 56.8316 100.47 45.4529 100.335 33.7512C105.02 44.6644 106.968 56.4433 106.774 68.2636C106.578 80.1227 104.128 91.9977 100.296 103.449C96.487 114.921 91.4089 126.033 85.8824 136.926C80.287 147.816 74.3569 158.513 67.7628 169.155Z" fill="#C497EB"/>
<path d="M75.261 51.0348C77.2644 19.0939 59.4146 8.33446 48.3241 19.1842C21.2379 45.7394 6.42932 77.9894 3.50532 112.528C1.01416 141.971 25.3201 180.453 58.0849 178.952C69.6827 178.423 68.7359 155.217 75.261 51.0348Z" fill="url(#paint3_radial_1_114)"/>
<path opacity="0.2" d="M48.6035 34.6487C44.2227 45.6229 39.9003 56.3668 36.5359 67.259C33.1038 78.1282 30.4954 89.0803 29.1473 100.119C27.8003 111.138 27.6448 122.241 29.2857 133.303C30.8567 144.381 34.3208 155.326 39.6511 166.215C30.3463 156.962 24.2967 145.762 20.9313 134.258C17.591 122.716 16.962 110.794 18.434 99.1582C19.884 87.5022 23.3899 76.1116 28.4766 65.2723C33.5632 54.433 40.1657 44.0638 48.6035 34.6487Z" fill="#C497EB"/>
<path d="M123.003 41.7131C124.357 19.35 144.919 25.409 149.115 38.164C155.899 58.8794 174.745 87.185 148.286 131.714C115.789 186.39 75.4294 184.1 60.1643 179.647C27.8427 170.256 116.897 143.213 123.003 41.7131Z" fill="url(#paint4_radial_1_114)"/>
<path opacity="0.2" d="M145.839 43.5149C145.597 54.9435 145.02 66.1985 143.956 77.5248C142.823 88.8281 140.996 100.23 137.27 111.434C133.569 122.6 127.835 133.502 119.841 143.214C111.871 152.926 101.89 161.519 90.387 168.455C98.683 159.111 106.446 149.835 112.631 139.968C118.883 130.145 123.548 119.867 127.106 109.238C130.663 98.6088 133.157 87.6506 135.794 76.5834C138.5 65.5392 141.259 54.3423 145.839 43.5149Z" fill="#C497EB"/>
<defs>
<radialGradient id="paint0_radial_1_114" cx="0" cy="0" r="1" gradientUnits="userSpaceOnUse" gradientTransform="translate(80.6224 -27.9635) rotate(1.48372) scale(55.8404 73.8768)">
<stop stop-color="#DAC8EB"/>
<stop offset="0.3135" stop-color="#CCAFEB"/>
<stop offset="0.7514" stop-color="#BC91EB"/>
<stop offset="1" stop-color="#B686EB"/>
</radialGradient>
<linearGradient id="paint1_linear_1_114" x1="60.6255" y1="82.132" x2="137.031" y2="102.015" gradientUnits="userSpaceOnUse">
<stop stop-color="#DAC8EB"/>
<stop offset="0.3135" stop-color="#CCAFEB"/>
<stop offset="0.7514" stop-color="#BC91EB"/>
<stop offset="1" stop-color="#B686EB"/>
</linearGradient>
<radialGradient id="paint2_radial_1_114" cx="0" cy="0" r="1" gradientUnits="userSpaceOnUse" gradientTransform="translate(95.0804 48.1822) rotate(0.643606) scale(50.4447 80.7384)">
<stop stop-color="#DAC8EB"/>
<stop offset="0.4448" stop-color="#CBADEB"/>
<stop offset="1" stop-color="#B686EB"/>
</radialGradient>
<radialGradient id="paint3_radial_1_114" cx="0" cy="0" r="1" gradientUnits="userSpaceOnUse" gradientTransform="translate(67.2662 67.6789) rotate(17.1467) scale(70.5555 123.312)">
<stop stop-color="#DAC8EB"/>
<stop offset="0.2909" stop-color="#D2B9EB"/>
<stop offset="0.8485" stop-color="#BC92EB"/>
<stop offset="1" stop-color="#B686EB"/>
</radialGradient>
<radialGradient id="paint4_radial_1_114" cx="0" cy="0" r="1" gradientUnits="userSpaceOnUse" gradientTransform="translate(105.418 71.4916) rotate(-4.03426) scale(76.626 178.117)">
<stop stop-color="#DAC8EB"/>
<stop offset="0.3733" stop-color="#CEB2EB"/>
<stop offset="1" stop-color="#B686EB"/>
</radialGradient>
</defs>
</svg>
