<svg width="168" height="188" viewBox="0 0 168 188" fill="none" xmlns="http://www.w3.org/2000/svg">
<path d="M118.726 146.346C118.726 146.346 104.328 156.7 94.9695 151.154C85.6122 145.628 57.6584 98.0734 58.7025 65.4832C59.7467 32.8929 61.9334 1.45471 80.9114 4.5113C98.1037 7.29148 137.386 52.481 137.33 82.4751C137.252 112.471 126.905 137.536 118.726 146.346Z" fill="url(#paint0_radial_1_91)"/>
<path d="M117.88 157.209C117.88 157.209 103.785 164.633 92.6959 159.844C81.6287 155.035 46.9823 127.754 30.1273 93.36C7.92599 48.0025 24.6211 9.9992 40.7381 17.1995C56.8552 24.3997 101.445 60.8545 109.552 94.2476C117.659 127.641 123.826 146.23 117.88 157.209Z" fill="url(#paint1_linear_1_91)"/>
<path d="M101.745 175.972C92.5384 173.704 76.6496 167.333 67.8522 160.662C59.0538 153.971 43.5751 117.782 42.9954 79.7619C42.0144 14.8235 78.0384 12.3143 87.5294 27.2437C113.288 67.716 130.016 58.3523 141.479 100.742C151.676 138.386 142.859 186.083 101.745 175.972Z" fill="url(#paint2_radial_1_91)"/>
<path opacity="0.2" d="M99.4291 170.089C97.1719 158.393 93.3186 146.958 89.3808 135.665C85.3742 124.375 81.1008 113.256 77.4465 102.104C73.7704 90.9727 70.7365 79.8072 68.9818 68.4756C67.1353 57.1489 66.6859 45.7086 66.8171 33.9437C62.1353 44.9145 60.191 56.7565 60.3882 68.6407C60.5874 80.564 63.0416 92.5038 66.8761 104.018C70.6888 115.553 75.7702 126.726 81.3 137.68C86.8985 148.631 92.8318 159.387 99.4291 170.089Z" fill="#C497EB"/>
<path d="M91.8965 51.328C89.8839 19.2139 107.731 8.40144 118.825 19.313C145.919 46.0194 160.737 78.448 163.671 113.174C166.171 142.777 141.876 181.46 109.11 179.941C97.5116 179.406 98.4518 156.075 91.8965 51.328Z" fill="url(#paint3_radial_1_91)"/>
<path opacity="0.2" d="M118.55 34.8609C122.934 45.8957 127.259 56.6989 130.627 67.6509C134.062 78.5798 136.674 89.5918 138.025 100.691C139.375 111.77 139.534 122.932 137.896 134.054C136.329 145.191 132.867 156.194 127.54 167.141C136.843 157.841 142.889 146.582 146.251 135.016C149.588 123.413 150.214 111.426 148.738 99.7277C147.285 88.0083 143.776 76.5551 138.686 65.6558C133.596 54.7565 126.99 44.3293 118.55 34.8609Z" fill="#C497EB"/>
<path d="M44.151 41.942C42.7902 19.4577 22.2299 25.5435 18.0378 38.3662C11.2596 59.1916 -7.57815 87.6447 18.8934 132.422C51.4067 187.403 91.7665 185.112 107.031 180.639C139.35 171.206 50.2863 143.992 44.151 41.942Z" fill="url(#paint4_radial_1_91)"/>
<path opacity="0.2" d="M21.3153 43.747C21.5604 55.2374 22.1412 66.5534 23.2089 77.9412C24.3443 89.3059 26.1751 100.77 29.9044 112.036C33.6086 123.263 39.3458 134.226 47.3423 143.992C55.3159 153.759 65.2996 162.402 76.8044 169.379C68.5055 159.981 60.7394 150.653 54.5517 140.731C48.2973 130.853 43.6287 120.518 40.0682 109.83C36.5078 99.143 34.0108 88.1249 31.3699 76.9971C28.6612 65.8925 25.8984 54.6342 21.3153 43.747Z" fill="#C497EB"/>
<defs>
<radialGradient id="paint0_radial_1_91" cx="0" cy="0" r="1" gradientUnits="userSpaceOnUse" gradientTransform="translate(86.5125 -28.0988) rotate(178.525) scale(55.8407 74.2768)">
<stop stop-color="#DAC8EB"/>
<stop offset="0.3135" stop-color="#CCAFEB"/>
<stop offset="0.7514" stop-color="#BC91EB"/>
<stop offset="1" stop-color="#B686EB"/>
</radialGradient>
<linearGradient id="paint1_linear_1_91" x1="106.542" y1="82.5974" x2="30.0988" y2="102.404" gradientUnits="userSpaceOnUse">
<stop stop-color="#DAC8EB"/>
<stop offset="0.3135" stop-color="#CCAFEB"/>
<stop offset="0.7514" stop-color="#BC91EB"/>
<stop offset="1" stop-color="#B686EB"/>
</linearGradient>
<radialGradient id="paint2_radial_1_91" cx="0" cy="0" r="1" gradientUnits="userSpaceOnUse" gradientTransform="translate(72.0763 48.4542) rotate(179.369) scale(50.4452 81.1751)">
<stop stop-color="#DAC8EB"/>
<stop offset="0.4448" stop-color="#CBADEB"/>
<stop offset="1" stop-color="#B686EB"/>
</radialGradient>
<radialGradient id="paint3_radial_1_91" cx="0" cy="0" r="1" gradientUnits="userSpaceOnUse" gradientTransform="translate(99.8962 68.0642) rotate(162.78) scale(70.5782 123.94)">
<stop stop-color="#DAC8EB"/>
<stop offset="0.2909" stop-color="#D2B9EB"/>
<stop offset="0.8485" stop-color="#BC92EB"/>
<stop offset="1" stop-color="#B686EB"/>
</radialGradient>
<radialGradient id="paint4_radial_1_91" cx="0" cy="0" r="1" gradientUnits="userSpaceOnUse" gradientTransform="translate(61.7452 71.8865) rotate(-175.928) scale(76.6324 179.067)">
<stop stop-color="#DAC8EB"/>
<stop offset="0.3733" stop-color="#CEB2EB"/>
<stop offset="1" stop-color="#B686EB"/>
</radialGradient>
</defs>
</svg>
