<svg width="157" height="130" viewBox="0 0 157 130" fill="none" xmlns="http://www.w3.org/2000/svg">
<path d="M98.2759 7.7154V25.4301H58.0703V7.7154C58.0703 3.59438 61.8315 0.274657 66.5005 0.274657H89.8133C94.4823 0.246039 98.2759 3.59438 98.2759 7.7154Z" fill="white"/>
<path d="M78.1731 25.4299H58.0703V7.71528C58.0703 3.59426 61.8315 0.274536 66.5005 0.274536H78.1407V20.7652L78.1731 25.4299Z" fill="#8AF3FF"/>
<path d="M91.3049 125.537C87.7058 128.342 83.2638 129.773 78.7893 129.973C73.5042 130.23 68.1218 128.656 63.9715 125.251C-32.8787 46.6368 1.62036 2.67925 34.6279 2.99405C66.8897 3.28023 77.5896 23.0554 78.7893 25.5452C78.8865 25.7169 78.9189 25.8027 78.9189 25.8027C78.9189 25.8027 89.3595 3.53776 123.794 3.85256C156.801 4.2246 190.165 48.8404 91.3049 125.537Z" fill="#8AF3FF"/>
<path opacity="0.5" d="M78.2052 25.5445V129.944C72.9202 130.201 67.5378 128.627 63.3875 125.222C-33.4627 46.6074 1.03636 2.64989 34.0439 2.96469C66.3057 3.27949 76.9731 23.0547 78.2052 25.5445Z" fill="#00AB91"/>
<path d="M100.611 27.1762C119.06 9.97665 148.404 20.9087 133.748 55.1075" stroke="white" stroke-width="2" stroke-miterlimit="10"/>
</svg>
